<svg xmlns:dc="http://purl.org/dc/elements/1.1/" xmlns:cc="http://creativecommons.org/ns#" xmlns:rdf="http://www.w3.org/1999/02/22-rdf-syntax-ns#" xmlns:svg="http://www.w3.org/2000/svg" xmlns="http://www.w3.org/2000/svg" xmlns:sodipodi="http://sodipodi.sourceforge.net/DTD/sodipodi-0.dtd" xmlns:inkscape="http://www.inkscape.org/namespaces/inkscape" viewBox="0 0 64 80" version="1.1" xml:space="preserve" style="fill:#fff;" x="0px" y="0px" fill-rule="evenodd" clip-rule="evenodd" stroke-linejoin="round" stroke-miterlimit="2"><path d="m 57.999745,49.000253 c 0,-0.552501 -0.447371,-1.000003 -1.000005,-1.000003 H 6.999488 c -0.5526344,0 -1.000005,0.447502 -1.000005,1.000003 v 10.000032 c 0,0.552501 0.4473706,1.000003 1.000005,1.000003 H 56.99974 c 0.552634,0 1.000005,-0.447502 1.000005,-1.000003 z m -2.00001,1.000004 v 8.000025 c 0,0 -48.000242,0 -48.000242,0 0,0 0,-8.000025 0,-8.000025 z" style="fill:#fff" stroke-width="1.14708" fill="#fff"/><path d="m 3.9990592,23.999675 v 19.00056 c 0,0.552001 0.4490534,1.000503 1.0004228,1.000503 h 46.999976 c 0.55137,0 1.000423,-0.448502 1.000423,-1.000503 0,-0.552002 -0.449053,-1.000503 -1.000423,-1.000503 H 5.9999048 c 0,0 0,-18.000057 0,-18.000057 0,-0.552002 -0.4490534,-0.999003 -1.0004228,-0.999003 -0.5513694,0 -1.0004228,0.447001 -1.0004228,0.999003 z" style="" stroke-width="2.06475" fill="#fff"/><path d="M 50.999036,11.999638 H 15.998448 c -0.551369,0 -0.99758,0.448501 -0.99758,1.000503 0,0.552001 0.446211,1.000503 0.99758,1.000503 h 35.000588 c 0.551369,0 1.000422,-0.448502 1.000422,-1.000503 0,-0.552002 -0.449053,-1.000503 -1.000422,-1.000503 z" style="" stroke-width="2.06475" fill="#fff"/><path d="m 50.999279,44.000237 h 4.000014 c 2.759589,0 5.000018,-2.240407 5.000018,-5.000016 0,-2.759608 -2.240429,-5.000015 -5.000018,-5.000015 0,0 -3.00001,0 -3.00001,0 0,0 0,-18.000056 0,-18.000056 0,-0.552002 -0.448002,-1.000003 -1.000004,-1.000003 -0.552002,0 -1.000004,0.448001 -1.000004,1.000003 v 19.000059 c 0,0.552402 0.447581,1.000003 1.000004,1.000003 h 4.000014 c 1.655585,0 3.000011,1.344404 3.000011,3.000009 0,1.655606 -1.344426,3.00001 -3.000011,3.00001 h -4.000014 c -0.552002,0 -1.000004,0.448001 -1.000004,1.000003 0,0.552002 0.448002,1.000003 1.000004,1.000003 z" style="" stroke-width="0.410393" fill="#fff"/><path d="M 59.999311,39.000721 V 8.9996276 c 0,-2.7588085 -2.240429,-4.9989155 -5.000018,-4.9989155 0,0 -4.000014,0 -4.000014,0 -0.552423,0 -1.000004,0.4465014 -1.000004,0.9994031 V 17.999956 h 2.000008 V 5.9995183 c 0,0 3.00001,0 3.00001,0 1.655585,0 3.000011,1.3452042 3.000011,3.0001093 0,0 0,30.0010934 0,30.0010934 z" style="" stroke-width="0.89443" fill="#fff"/><path d="m 8.2918596,21.857975 5.6568704,-5.65687 -1.414079,-1.414078 -5.6568695,5.65687 z" style="" stroke-width="0.355411" fill="#fff"/><path d="m 5.4631726,13.372739 c -1.9525133,1.952513 -1.9524687,5.118618 -2.828e-4,7.070804 4.9932482,4.993249 14.8495312,14.849532 14.8495312,14.849532 0.139442,0.139442 0.317192,0.234423 0.511487,0.273898 l 7.071159,1.414289 c 0.326835,0.06483 0.666686,-0.03715 0.903084,-0.273545 0.236397,-0.236398 0.338377,-0.576249 0.273545,-0.903084 l -1.414289,-7.071159 c -0.03947,-0.194295 -0.134456,-0.372045 -0.273898,-0.511487 L 12.533977,13.372456 C 10.581791,11.42027 7.4156859,11.420225 5.4631726,13.372739 Z m 1.4138993,1.413899 c 1.1715676,-1.171568 3.0717865,-1.170866 4.2426881,3.5e-5 0,0 14.635242,14.635242 14.635242,14.635242 0,0 1.061229,5.303882 1.061229,5.303882 0,0 -5.303882,-1.061229 -5.303882,-1.061229 0,0 -14.6352417,-14.635242 -14.6352417,-14.635242 -1.1709014,-1.170902 -1.1716029,-3.071121 -3.54e-5,-4.242688 z" style="" stroke-width="0.781364" fill="#fff"/><path d="m 31.999297,36.999674 h 5.000015 c 2.761009,0 5.000016,-2.239007 5.000016,-5.000015 0,-1.326004 -0.527002,-2.598008 -1.464005,-3.536011 -0.938003,-0.937003 -2.210007,-1.464005 -3.536011,-1.464005 H 32.9993 c -0.796003,0 -1.559005,-0.316001 -2.121007,-0.879002 -0.563002,-0.562002 -0.879003,-1.325004 -0.879003,-2.121007 0,-0.796002 0.316001,-1.559005 0.879003,-2.121006 0.562002,-0.563002 1.325004,-0.879003 2.121007,-0.879003 h 8.000024 c 0.552002,0 1.000004,-0.448002 1.000004,-1.000003 0,-0.552002 -0.448002,-1.000003 -1.000004,-1.000003 0,0 -4.510013,0 -8.000024,0 -1.326004,0 -2.598008,0.527001 -3.536011,1.464004 -0.937003,0.938003 -1.464005,2.210007 -1.464005,3.536011 0,1.326004 0.527002,2.598008 1.464005,3.536011 0.938003,0.937003 2.210007,1.464005 3.536011,1.464005 h 4.000012 c 0.796003,0 1.559005,0.316001 2.121007,0.879002 0.563001,0.562002 0.879002,1.325004 0.879002,2.121007 0,1.657005 -1.343004,3.000009 -3.000009,3.000009 h -5.000015 c -0.552002,0 -1.000003,0.448002 -1.000003,1.000003 0,0.552002 0.448001,1.000003 1.000003,1.000003 z" style="" stroke-width="1" fill="#fff"/><circle cx="44.99934" cy="20.000109" r="1.0000031" style="" stroke-width="0.500002" fill="#fff"/><circle cx="4.9992156" cy="9.0000744" r="1.0000031" style="" stroke-width="0.500002" fill="fff"/><path d="m 42.998806,49.000248 v 6.000023 c 0,0.552002 0.448001,1.000076 1.000003,1.000076 0.552001,0 1.000003,-0.448074 1.000003,-1.000076 v -6.000023 c 0,-0.552002 -0.448002,-1.000075 -1.000003,-1.000075 -0.552002,0 -1.000003,0.448073 -1.000003,1.000075 z" style="" stroke-width="0.462912" fill="#fff"/><path d="m 30.999306,49.000248 v 6.000023 c 0,0.552002 0.448001,1.000076 1.000003,1.000076 0.552001,0 1.000003,-0.448074 1.000003,-1.000076 v -6.000023 c 0,-0.552002 -0.448002,-1.000075 -1.000003,-1.000075 -0.552002,0 -1.000003,0.448073 -1.000003,1.000075 z" style="" stroke-width="0.462912" fill="#fff"/><path d="m 18.999266,49.000248 v 6.000023 c 0,0.552002 0.448001,1.000076 1.000003,1.000076 0.552001,0 1.000003,-0.448074 1.000003,-1.000076 v -6.000023 c 0,-0.552002 -0.448002,-1.000075 -1.000003,-1.000075 -0.552002,0 -1.000003,0.448073 -1.000003,1.000075 z" style="" stroke-width="0.462912" fill="#fff"/><path d="m 12.999246,49.000242 v 2.999996 c 0,0.551893 0.448001,0.999963 1.000003,0.999963 0.552001,0 1.000003,-0.44807 1.000003,-0.999963 v -2.999996 c 0,-0.551892 -0.448002,-0.999963 -1.000003,-0.999963 -0.552002,0 -1.000003,0.448071 -1.000003,0.999963 z" style="" stroke-width="0.327327" fill="#fff"/><path d="m 24.999286,49.000242 v 2.999996 c 0,0.551893 0.448001,0.999963 1.000003,0.999963 0.552001,0 1.000003,-0.44807 1.000003,-0.999963 v -2.999996 c 0,-0.551892 -0.448002,-0.999963 -1.000003,-0.999963 -0.552002,0 -1.000003,0.448071 -1.000003,0.999963 z" style="" stroke-width="0.327327" fill="#fff"/><path d="m 36.998786,49.000242 v 2.999996 c 0,0.551893 0.448001,0.999963 1.000003,0.999963 0.552001,0 1.000003,-0.44807 1.000003,-0.999963 v -2.999996 c 0,-0.551892 -0.448002,-0.999963 -1.000003,-0.999963 -0.552002,0 -1.000003,0.448071 -1.000003,0.999963 z" style="" stroke-width="0.327327" fill="#fff"/><path d="m 48.998826,49.000242 v 2.999996 c 0,0.551893 0.448001,0.999963 1.000003,0.999963 0.552001,0 1.000003,-0.44807 1.000003,-0.999963 v -2.999996 c 0,-0.551892 -0.448002,-0.999963 -1.000003,-0.999963 -0.552002,0 -1.000003,0.448071 -1.000003,0.999963 z" style="" stroke-width="0.327327" fill="#f"/><path d="m 12.534632,21.858247 9.899516,9.899517 c 0.390324,0.390324 1.023894,0.390323 1.414218,-1e-6 0.390325,-0.390324 0.390325,-1.023894 1e-6,-1.414218 l -9.899516,-9.899516 c -0.390324,-0.390324 -1.023894,-0.390324 -1.414218,1e-6 -0.390325,0.390324 -0.390325,1.023894 -10e-7,1.414217 z" style="" stroke-width="0.707109" fill="#fff"/><path d="M 18.999349,8.0001356 H 8.9993306 c -0.5517867,0 -1.0000018,0.4480014 -1.0000018,1.0000031 0,0.5520017 0.4482151,1.0000033 1.0000018,1.0000033 H 18.999349 c 0.551787,0 1.000002,-0.4480016 1.000002,-1.0000033 0,-0.5520017 -0.448215,-1.0000031 -1.000002,-1.0000031 z" style="fill:#fff;" stroke-width="0.597616" /></svg>