<svg xmlns="http://www.w3.org/2000/svg" xmlns:xlink="http://www.w3.org/1999/xlink" xmlns:xodm="http://www.corel.com/coreldraw/odm/2003" xml:space="preserve" version="1.1" style="shape-rendering:geometricPrecision;text-rendering:geometricPrecision;image-rendering:optimizeQuality;" viewBox="0 0 846.66 1058.325" x="0px" y="0px" fill-rule="evenodd" clip-rule="evenodd"><defs><style>
   
    .fil0 {fill:#fff;fill-rule:nonzero} 
   
  </style></defs><g><path class="fil0" d="M423.33 593.16l-111.81 0 -0.01 0 -0.2 0c-4.49,0.05 -8.53,1.87 -11.42,4.77l-0.08 0.08c-2.94,2.93 -4.77,7.06 -4.77,11.63 0,4.19 1.55,8.03 4.08,10.9l0.77 0.73c2.93,2.93 6.98,4.79 11.42,4.85l0.21 0 223.63 0 0.21 0c4.43,-0.06 8.48,-1.92 11.41,-4.85 3,-2.95 4.85,-7.08 4.85,-11.63 0,-4.2 -1.55,-8.03 -4.08,-10.9l-0.77 -0.73c-2.98,-2.98 -7.11,-4.85 -11.62,-4.85l-111.82 0zm-346.19 -490.9c-10.09,-5.79 -13.56,-18.68 -7.77,-28.77 5.79,-10.09 18.68,-13.56 28.77,-7.77l64.34 37.14c10.09,5.79 13.56,18.68 7.77,28.77 -5.79,10.09 -18.68,13.56 -28.77,7.77l-64.34 -37.14zm607.04 350.48c-10.09,-5.79 -13.56,-18.68 -7.77,-28.77 5.79,-10.09 18.68,-13.56 28.77,-7.77l64.35 37.14c10.09,5.79 13.56,18.68 7.77,28.77 -5.79,10.09 -18.68,13.56 -28.77,7.77l-64.35 -37.14zm-585.96 37.14c-10.09,5.84 -23.01,2.4 -28.85,-7.69 -5.84,-10.09 -2.4,-23.01 7.69,-28.85l64.34 -37.15c10.09,-5.84 23.01,-2.4 28.85,7.69 5.84,10.09 2.4,23.01 -7.69,28.85l-64.34 37.15zm606.96 -350.48c-10.09,5.79 -22.98,2.32 -28.77,-7.77 -5.79,-10.09 -2.32,-22.98 7.77,-28.77l64.35 -37.15c10.09,-5.79 22.98,-2.32 28.77,7.77 5.79,10.09 2.32,22.98 -7.77,28.77l-64.35 37.15zm-669.48 159.57c-11.69,0 -21.17,-9.48 -21.17,-21.17 0,-11.69 9.48,-21.17 21.17,-21.17l74.3 0c11.69,0 21.17,9.48 21.17,21.17 0,11.69 -9.48,21.17 -21.17,21.17l-74.3 0zm700.96 0c-11.69,0 -21.17,-9.48 -21.17,-21.17 0,-11.69 9.48,-21.17 21.17,-21.17l74.3 0c11.69,0 21.17,9.48 21.17,21.17 0,11.69 -9.48,21.17 -21.17,21.17l-74.3 0zm-212.07 444.8c1.55,5.24 2.38,10.77 2.38,16.48 0,16.12 -6.63,30.81 -17.27,41.47 -10.64,10.72 -25.37,17.35 -41.55,17.35l-89.63 0c-16.18,0 -30.91,-6.63 -41.55,-17.27l-1.3 -1.43c-9.88,-10.53 -15.97,-24.67 -15.97,-40.12 0,-5.71 0.83,-11.24 2.38,-16.48l-10.56 0c-16.08,0 -30.75,-6.59 -41.43,-17.23l-0.08 -0.08c-10.69,-10.72 -17.31,-25.42 -17.31,-41.52 0,-14.25 5.18,-27.41 13.77,-37.65 -8.58,-10.25 -13.77,-23.4 -13.77,-37.65 0,-16.1 6.61,-30.79 17.27,-41.47l0.08 -0.08c5.5,-5.48 12.05,-9.89 19.29,-12.88 -4.62,-37.37 -24.61,-60.24 -46.16,-84.89 -35.31,-40.42 -74.17,-84.87 -74.17,-188.4 0,-70.21 28.48,-133.8 74.5,-179.82 46.02,-46.02 109.61,-74.5 179.82,-74.5 70.21,0 133.8,28.48 179.82,74.5 46.02,46.02 74.5,109.61 74.5,179.82 0,103.53 -38.86,147.98 -74.17,188.4 -21.55,24.65 -41.52,47.5 -46.15,84.86 7.3,3 13.87,7.42 19.36,12.91l1.3 1.42c9.9,10.56 15.97,24.71 15.97,40.13 0,14.26 -5.19,27.4 -13.75,37.62 8.56,10.28 13.75,23.42 13.75,37.68 0,16.19 -6.61,30.9 -17.27,41.56 -10.64,10.64 -25.36,17.27 -41.54,17.27l-10.56 0zm-146.28 0c-4.49,0.06 -8.54,1.88 -11.42,4.77l-0.08 0.08c-2.94,2.93 -4.77,7.06 -4.77,11.63 0,4.2 1.58,8.04 4.15,10.96l0.7 0.67c2.98,2.98 7.12,4.85 11.63,4.85l89.63 0c4.51,0 8.65,-1.87 11.63,-4.85 3,-2.95 4.85,-7.08 4.85,-11.63 0,-4.57 -1.83,-8.7 -4.77,-11.63l-0.08 -0.08c-2.88,-2.89 -6.93,-4.71 -11.42,-4.77l-0.21 0 -89.63 0 -0.21 0zm-66.79 -42.34l66.25 0 0.75 0 89.63 0 0.75 0 66.25 0c4.51,0 8.64,-1.87 11.62,-4.85 2.99,-2.99 4.85,-7.12 4.85,-11.64 0,-4.55 -1.85,-8.68 -4.81,-11.67 -2.97,-2.89 -7.02,-4.75 -11.45,-4.81l-0.21 0 -223.63 0 -0.21 0c-4.44,0.06 -8.49,1.92 -11.42,4.85l-0.77 0.73c-2.53,2.87 -4.08,6.7 -4.08,10.9 0,4.57 1.83,8.71 4.77,11.64l0.08 0.08c2.93,2.94 7.06,4.77 11.63,4.77zm20.04 -150.61l183.54 0c5.45,-49.69 30.08,-77.89 56.64,-108.28 30.27,-34.64 63.57,-72.75 63.57,-160.62 0,-58.54 -23.74,-111.56 -62.08,-149.9 -38.34,-38.34 -91.36,-62.08 -149.9,-62.08 -58.54,0 -111.56,23.74 -149.9,62.08 -38.34,38.34 -62.08,91.36 -62.08,149.9 0,87.87 33.3,125.98 63.57,160.62 26.56,30.39 51.19,58.59 56.64,108.28z"/></g></svg>