<svg xmlns="http://www.w3.org/2000/svg" style="fill:#fff;" xmlns:xlink="http://www.w3.org/1999/xlink" version="1.1" x="0px" y="0px" viewBox="0 0 64 80" enable-background="new 0 0 64 64" xml:space="preserve"><g><path d="M59.169,50.961L48.397,40.189c-0.985-0.985-2.622-1.109-3.773-0.375l-3.952-3.952c5.593-7.894,4.877-18.92-2.188-25.987   C34.662,6.054,29.582,3.95,24.178,3.95S13.692,6.054,9.87,9.875c-7.888,7.89-7.888,20.726,0,28.613   c3.822,3.822,8.903,5.927,14.308,5.927c4.251,0,8.291-1.319,11.685-3.734l3.943,3.944c-0.772,1.164-0.646,2.752,0.379,3.777   l10.77,10.771c0.564,0.564,1.318,0.876,2.121,0.876s1.557-0.312,2.121-0.876l3.973-3.971   C60.339,54.033,60.339,52.131,59.169,50.961z M11.284,37.074c-7.108-7.108-7.107-18.675,0-25.785   c3.444-3.443,8.023-5.339,12.894-5.339s9.448,1.896,12.892,5.339c7.108,7.11,7.108,18.677,0,25.785   c-3.443,3.444-8.021,5.341-12.892,5.341S14.729,40.519,11.284,37.074z M38.483,38.488c0.335-0.335,0.636-0.691,0.943-1.043   l3.736,3.736l-1.986,1.986l-3.733-3.735C37.795,39.125,38.149,38.822,38.483,38.488z M57.755,53.789l-3.973,3.971   c-0.375,0.373-1.039,0.373-1.414,0l-10.77-10.771c-0.39-0.39-0.39-1.024,0-1.414l3.971-3.971c0.188-0.187,0.438-0.29,0.707-0.29   s0.52,0.104,0.707,0.29l10.771,10.771C58.145,52.765,58.145,53.399,57.755,53.789z M23.995,9.002c-8.271,0-15,6.729-15,15   s6.729,15,15,15s15-6.729,15-15S32.267,9.002,23.995,9.002z M23.995,37.002c-7.168,0-13-5.832-13-13s5.832-13,13-13s13,5.832,13,13   S31.163,37.002,23.995,37.002z"/></g></svg>