<svg xmlns="http://www.w3.org/2000/svg" xmlns:xlink="http://www.w3.org/1999/xlink" xmlns:serif="http://www.serif.com/" viewBox="0 0 32 40" version="1.1" xml:space="preserve" style="fill:#fff;" x="0px" y="0px" fill-rule="evenodd" clip-rule="evenodd" stroke-linejoin="round" stroke-miterlimit="2"><g transform="matrix(1,0,0,1,-144,0)"><path d="M148.859,23.932L148.859,23.932L148.207,24.085C147.2,24.322 146.442,25.155 146.302,26.181L146.014,28.297C145.955,28.727 146.085,29.16 146.37,29.486C146.655,29.813 147.067,30 147.5,30C149.356,30 152.999,30 154.856,30C155.289,30 155.701,29.813 155.986,29.486C156.27,29.16 156.4,28.727 156.342,28.297L156.053,26.179C155.913,25.154 155.157,24.322 154.151,24.084C153.801,24.001 153.504,23.93 153.448,23.917C153.444,23.916 153.441,23.916 153.437,23.915C153.303,23.883 153.156,23.908 153.034,23.994C152.5,24.373 151.846,24.596 151.142,24.596C150.445,24.596 149.799,24.378 149.268,24.007C149.144,23.92 148.995,23.897 148.859,23.932ZM166.153,24.03L166.152,24.03C166.152,24.03 165.784,24.111 165.421,24.19C164.405,24.414 163.634,25.242 163.483,26.271L163.19,28.283C163.127,28.714 163.254,29.152 163.539,29.481C163.824,29.811 164.238,30 164.674,30L172.489,30C172.925,30 173.339,29.811 173.624,29.481C173.909,29.152 174.036,28.714 173.973,28.283L173.679,26.269C173.529,25.241 172.759,24.413 171.745,24.189C171.355,24.103 171.017,24.028 170.953,24.014C170.949,24.013 170.946,24.013 170.942,24.012C170.814,23.984 170.676,24.005 170.558,24.083C169.989,24.46 169.294,24.681 168.544,24.681C167.802,24.681 167.114,24.465 166.549,24.096C166.427,24.016 166.283,23.997 166.153,24.03ZM153.42,24.938C152.76,25.355 151.979,25.596 151.142,25.596C150.314,25.596 149.541,25.36 148.886,24.953L148.436,25.058C147.832,25.201 147.377,25.701 147.293,26.316C147.293,26.316 147.005,28.432 147.005,28.432C146.985,28.576 147.028,28.72 147.123,28.829C147.218,28.938 147.356,29 147.5,29L154.856,29C155,29 155.137,28.938 155.232,28.829C155.327,28.72 155.37,28.576 155.351,28.432C155.351,28.432 155.062,26.314 155.062,26.314C154.978,25.699 154.525,25.2 153.921,25.057L153.42,24.938ZM170.926,25.032C170.238,25.443 169.42,25.681 168.544,25.681C167.677,25.681 166.869,25.448 166.185,25.046L165.635,25.167C165.026,25.301 164.563,25.798 164.473,26.416C164.473,26.416 164.179,28.428 164.179,28.428C164.158,28.571 164.201,28.717 164.296,28.827C164.391,28.937 164.529,29 164.674,29C164.674,29 172.489,29 172.489,29C172.634,29 172.772,28.937 172.867,28.827C172.962,28.717 173.005,28.571 172.984,28.428C172.984,28.428 172.69,26.414 172.69,26.414C172.6,25.797 172.138,25.3 171.529,25.166L170.926,25.032ZM166.045,22.784C166.701,23.603 167.607,24.105 168.588,24.105C169.557,24.105 170.55,23.595 171.254,22.784L172.765,22.784C172.765,22.784 173.265,22.744 173.265,22.271L173.265,21.182C173.265,19.94 172.772,18.749 171.894,17.871C171.016,16.993 169.825,16.5 168.583,16.5C168.582,16.5 168.581,16.5 168.58,16.5C167.338,16.5 166.147,16.993 165.269,17.871C164.391,18.749 163.898,19.94 163.898,21.182C163.898,21.763 163.898,22.191 163.898,22.271C163.898,22.744 164.398,22.784 164.398,22.784L166.045,22.784ZM151.184,16.676C149.172,16.676 147.539,18.309 147.539,20.321C147.539,22.333 149.172,23.967 151.184,23.967C153.196,23.967 154.83,22.333 154.83,20.321C154.83,18.309 153.196,16.676 151.184,16.676ZM159.5,22.5L157.5,22.5C157.224,22.5 157,22.724 157,23C157,23.276 157.224,23.5 157.5,23.5L162.5,23.5C162.776,23.5 163,23.276 163,23C163,22.724 162.776,22.5 162.5,22.5L160.5,22.5L160.5,16C160.5,15.724 160.276,15.5 160,15.5C159.724,15.5 159.5,15.724 159.5,16L159.5,22.5ZM171.186,19.732C171.515,21.536 170.033,23.105 168.588,23.105C167.345,23.105 166.349,21.97 166.075,20.478C166.211,20.536 166.353,20.593 166.493,20.641C166.798,20.747 167.097,20.81 167.323,20.802C167.486,20.797 167.636,20.713 167.725,20.576C167.814,20.439 167.831,20.268 167.77,20.116C167.661,19.843 167.63,19.631 167.732,19.479C168.449,19.491 168.966,19.759 169.355,20.195C169.477,20.331 169.662,20.39 169.84,20.35C170.018,20.309 170.159,20.175 170.209,20L170.509,18.949C170.917,19.121 171.12,19.371 171.186,19.732ZM153.813,20.016L153.804,20.011C153.698,20.206 153.555,20.358 153.396,20.493C153.256,20.612 153.062,20.644 152.891,20.578C152.721,20.511 152.6,20.357 152.577,20.175C152.566,20.092 152.55,20.014 152.529,19.942C152.444,20.116 152.336,20.278 152.211,20.43C152.095,20.57 151.911,20.637 151.732,20.603C151.553,20.569 151.407,20.44 151.35,20.267C151.226,19.889 150.916,19.545 150.368,19.372C149.972,19.51 149.652,19.916 149.328,20.392C149.205,20.574 148.977,20.654 148.768,20.589C148.678,20.562 148.601,20.511 148.542,20.444C148.606,21.848 149.766,22.967 151.184,22.967C152.645,22.967 153.83,21.781 153.83,20.321C153.83,20.218 153.824,20.116 153.813,20.016ZM165.028,20.212C164.943,20.526 164.898,20.852 164.898,21.182L164.898,21.784L165.441,21.784C165.23,21.308 165.086,20.778 165.028,20.212ZM172.215,20.58C172.175,21.005 172.063,21.41 171.895,21.784L172.265,21.784L172.265,21.182C172.265,20.979 172.248,20.778 172.215,20.58ZM170.098,17.826C169.626,17.613 169.11,17.5 168.583,17.5L168.58,17.5C167.604,17.5 166.667,17.888 165.977,18.578C165.803,18.752 165.649,18.941 165.515,19.142C165.593,19.145 165.672,19.166 165.743,19.206C165.743,19.206 166.153,19.435 166.601,19.614C166.622,19.623 166.642,19.631 166.663,19.639C166.671,19.188 166.878,18.841 167.227,18.581C167.308,18.521 167.405,18.486 167.505,18.482C168.309,18.448 168.945,18.633 169.463,18.972L169.688,18.184C169.744,17.989 169.908,17.853 170.098,17.826ZM153.344,18.794C152.865,18.117 152.076,17.676 151.184,17.676C150.296,17.676 149.51,18.114 149.03,18.786C149.078,18.798 149.125,18.816 149.169,18.842C149.206,18.864 149.239,18.89 149.268,18.919C149.58,18.636 149.912,18.441 150.264,18.364C150.34,18.348 150.417,18.35 150.492,18.368C151.036,18.506 151.445,18.749 151.744,19.047C151.746,18.996 151.746,18.943 151.742,18.887C151.73,18.708 151.815,18.535 151.966,18.436C152.116,18.337 152.308,18.326 152.469,18.408C152.732,18.543 152.951,18.717 153.123,18.931C153.157,18.895 153.196,18.864 153.241,18.838C153.274,18.819 153.309,18.805 153.344,18.794ZM157.901,9.028L157.901,9.027C157.901,9.027 157.684,9.077 157.446,9.132C156.436,9.364 155.674,10.196 155.531,11.223C155.46,11.733 155.38,12.306 155.312,12.793C155.252,13.223 155.381,13.657 155.666,13.985C155.951,14.312 156.364,14.5 156.798,14.5C158.465,14.5 161.535,14.5 163.202,14.5C163.636,14.5 164.049,14.312 164.334,13.985C164.619,13.657 164.748,13.223 164.688,12.793C164.62,12.305 164.54,11.731 164.469,11.221C164.326,10.195 163.565,9.364 162.557,9.131L162.055,9.014C162.05,9.013 162.046,9.012 162.042,9.012C161.909,8.983 161.766,9.008 161.646,9.092C161.172,9.429 160.593,9.626 159.968,9.626C159.35,9.626 158.776,9.433 158.305,9.104C158.183,9.018 158.036,8.995 157.901,9.028ZM162.033,10.036C161.433,10.41 160.725,10.626 159.968,10.626C159.218,10.626 158.518,10.415 157.923,10.048L157.671,10.106C157.064,10.246 156.607,10.745 156.521,11.361L156.303,12.931C156.283,13.074 156.326,13.219 156.421,13.328C156.516,13.437 156.653,13.5 156.798,13.5L163.202,13.5C163.347,13.5 163.484,13.437 163.579,13.328C163.674,13.219 163.717,13.074 163.697,12.931L163.478,11.359C163.393,10.744 162.936,10.245 162.331,10.105L162.033,10.036ZM163.277,4.672C163.277,4.671 163.277,4.67 163.276,4.668C162.966,3.146 161.619,2 160.006,2C158.164,2 156.668,3.496 156.668,5.338C156.668,7.18 158.164,8.676 160.006,8.676C161.848,8.676 163.344,7.18 163.344,5.338C163.344,5.11 163.321,4.887 163.277,4.672ZM162.342,5.259C161.349,5.213 160.39,5.021 159.487,4.596C158.836,5.047 158.224,5.284 157.668,5.308C157.668,5.318 157.668,5.328 157.668,5.338C157.668,6.628 158.716,7.676 160.006,7.676C161.296,7.676 162.344,6.628 162.344,5.338C162.344,5.311 162.343,5.285 162.342,5.259ZM162.07,4.24C161.677,3.502 160.899,3 160.006,3C159.099,3 158.311,3.518 157.924,4.274C158.296,4.185 158.697,3.951 159.135,3.616C159.29,3.497 159.501,3.48 159.673,3.572C160.429,3.975 161.235,4.171 162.07,4.24Z"/></g></svg>